<svg xmlns="http://www.w3.org/2000/svg"  viewBox="0 0 40 40" width="100px" height="100px"><path fill="#f78f8f" d="M20,38.5c-6.924,0-12.5-12.348-12.5-22.571C7.5,6.759,12.056,1.5,20,1.5s12.5,5.259,12.5,14.429 C32.5,26.152,26.924,38.5,20,38.5z"/><path fill="#c74343" d="M20,2c7.626,0,12,5.077,12,13.929C32,25.864,26.463,38,20,38S8,25.864,8,15.929 C8,7.077,12.374,2,20,2 M20,1C12.807,1,7,5.433,7,15.929S12.807,39,20,39s13-12.576,13-23.071S27.193,1,20,1L20,1z"/><path fill="#c74343" d="M19.5,1.026V38.93C19.667,38.953,19.831,39,20,39s0.333-0.047,0.5-0.07V1.026	C20.333,1.017,20.169,1,20,1S19.667,1.017,19.5,1.026z"/><path fill="none" stroke="#c74343" stroke-miterlimit="10" d="M20 8c0 0 1.527 2.5 5.429 2.5C25.429 14.515 30 16 30 16M20 8c0 0-1.527 2.5-5.429 2.5C14.571 14.515 10 16 10 16M20 33.571c0 0 1.098-3.071 5-3.071M20 33.571c0 0-1.098-3.071-5-3.071"/><path fill="#66798f" d="M30.021,13.861c-0.445,3.18-6.138,5.539-8.294,6.18l-1.575,0.615l0.422,0.844	c0.061,0.187,2.014,4.406,5.99,6.394l0.645,0.322l0.51-0.51C30.493,24.933,31.863,20.879,32,15c0.008-0.328-0.035-4.438-1.989-7.719	C30.527,10.922,30.021,13.861,30.021,13.861L30.021,13.861z"/><path fill="#fff" d="M21.594,21.156c0,0,8.773-2.632,9.406-7.156c0,6.15-1.3,10.3-4,13	C23.353,25.176,21.594,21.156,21.594,21.156z"/><path fill="#66798f" d="M9.979,13.861c0,0-0.506-2.939,0.01-6.58C8.035,10.562,7.992,14.672,8,15	c0.137,5.879,1.507,9.933,4.281,12.707l0.51,0.51l0.645-0.322c3.977-1.988,5.93-6.208,5.99-6.394l0.422-0.844l-1.575-0.615	C16.117,19.401,10.424,17.041,9.979,13.861L9.979,13.861z"/><path fill="#fff" d="M18.406,21.156c0,0-8.773-2.632-9.406-7.156c0,6.15,1.3,10.3,4,13	C16.647,25.176,18.406,21.156,18.406,21.156z"/><path fill="none" stroke="#c74343" stroke-miterlimit="10" d="M13 34L29 5M11 5L27 34"/></svg>